name analog
datacolumns 19
datarows 18
range 0.1585 0.167
endheader
time	ground_force_vx	ground_force_vy	ground_force_vz	ground_force_px	ground_force_py	ground_force_pz	l_ground_force_vx	l_ground_force_vy	l_ground_force_vz	l_ground_force_px	l_ground_force_py	l_ground_force_pz	ground_torque_x	ground_torque_y	ground_torque_z	l_ground_torque_x	l_ground_torque_y	l_ground_torque_z
0.1585	-0.0	-0.0	-0.0	17.238039016723633	53.78389739990234	-397.4990234375	-4.298259735107422	-39.12651062011719	-328.37158203125	-0.0	-0.0	-0.0	-0.0	-0.0	-0.0	75228.9296875	-16703.34765625	-2763.16064453125
0.159	-0.0	-0.0	-0.0	16.282106399536133	53.745635986328125	-399.1027526855469	-4.392515659332275	-38.24329376220703	-323.56317138671875	-0.0	-0.0	-0.0	-0.0	-0.0	-0.0	74369.53125	-16856.1328125	-2453.818603515625
0.1595	-0.0	-0.0	-0.0	15.762842178344728	54.45413589477539	-398.39599609375	-4.080696105957031	-37.62249374389648	-319.553466796875	-0.0	-0.0	-0.0	-0.0	-0.0	-0.0	73357.171875	-16765.095703125	-2385.58154296875
0.16	-0.0	-0.0	-0.0	14.674064636230469	54.57062149047852	-399.1921691894531	-3.834929466247559	-36.67377853393555	-312.57086181640625	-0.0	-0.0	-0.0	-0.0	-0.0	-0.0	72062.4375	-16651.9921875	-2259.699462890625
0.1605	-0.0	-0.0	-0.0	14.497698783874512	54.61613845825195	-398.4850769042969	-3.416500806808472	-35.1044807434082	-305.9374084472656	-0.0	-0.0	-0.0	-0.0	-0.0	-0.0	70303.65625	-16676.87109375	-2176.061767578125
0.161	-0.0	-0.0	-0.0	14.919048309326172	54.61230850219727	-400.4158935546875	-3.1275973320007324	-33.51484298706055	-299.6529846191406	-0.0	-0.0	-0.0	-0.0	-0.0	-0.0	69039.9375	-16473.025390625	-2087.219970703125
0.1615	-0.0	-0.0	-0.0	15.050373077392578	54.638668060302734	-398.9201965332031	-2.706691026687622	-31.968420028686523	-291.3550720214844	-0.0	-0.0	-0.0	-0.0	-0.0	-0.0	67299.6640625	-16537.076171875	-1916.1287841796875
0.162	-0.0	-0.0	-0.0	14.740845680236816	54.30467987060547	-395.8248596191406	-1.9742847681045528	-29.608442306518555	-282.6271667480469	-0.0	-0.0	-0.0	-0.0	-0.0	-0.0	65308.82421875	-16701.875	-1855.668212890625
0.1625	-0.0	-0.0	-0.0	15.143109321594238	54.348388671875	-395.2922058105469	-0.9758186340332032	-28.037677764892575	-271.9820556640625	-0.0	-0.0	-0.0	-0.0	-0.0	-0.0	62972.70703125	-16273.09765625	-1639.3377685546875
0.163	-0.0	-0.0	-0.0	14.98871898651123	53.96913909912109	-392.3882751464844	-0.1129459589719772	-25.74331283569336	-263.678955078125	-0.0	-0.0	-0.0	-0.0	-0.0	-0.0	60972.35546875	-16038.166015625	-1452.603515625
0.1635	-0.0	-0.0	-0.0	15.43341827392578	53.61133193969727	-388.5874328613281	0.2871842682361603	-23.60434341430664	-251.9987030029297	-0.0	-0.0	-0.0	-0.0	-0.0	-0.0	58835.4453125	-15656.19140625	-1421.6217041015625
0.164	-0.0	-0.0	-0.0	15.969785690307615	52.7200813293457	-384.4342041015625	-0.1548942476511001	-22.23602867126465	-244.2288055419922	-0.0	-0.0	-0.0	-0.0	-0.0	-0.0	56939.3984375	-15477.5986328125	-1392.43505859375
0.1645	-0.0	-0.0	-0.0	16.080434799194336	51.91798400878906	-377.5493774414063	-0.4885361194610595	-21.306671142578125	-238.55413818359372	-0.0	-0.0	-0.0	-0.0	-0.0	-0.0	55381.46875	-15338.6376953125	-1577.5343017578125
0.165	-0.0	-0.0	-0.0	15.85696506500244	50.446998596191406	-371.5388488769531	-1.3766801357269287	-20.2927360534668	-233.3172912597656	-0.0	-0.0	-0.0	-0.0	-0.0	-0.0	54415.1328125	-15243.2607421875	-1793.855224609375
0.1655	-0.0	-0.0	-0.0	15.656784057617188	49.64563751220703	-366.9512634277344	-2.6398768424987797	-20.29166412353516	-231.1345367431641	-0.0	-0.0	-0.0	-0.0	-0.0	-0.0	53704.04296875	-15196.703125	-1994.522216796875
0.166	-0.0	-0.0	-0.0	15.14390754699707	49.557071685791016	-362.6291809082031	-3.637142181396485	-19.82864761352539	-227.73159790039065	-0.0	-0.0	-0.0	-0.0	-0.0	-0.0	53081.2265625	-15224.0009765625	-2143.722412109375
0.1665	-0.0	-0.0	-0.0	13.403146743774414	50.20280456542969	-362.98193359375	-4.214120388031006	-19.540637969970703	-226.07144165039065	-0.0	-0.0	-0.0	-0.0	-0.0	-0.0	52701.93359375	-15488.1474609375	-2188.38720703125
0.167	-0.0	-0.0	-0.0	11.105752944946287	52.07450485229492	-368.63128662109375	-4.302187442779541	-18.922494888305664	-223.4547882080078	-0.0	-0.0	-0.0	-0.0	-0.0	-0.0	52434.5625	-15276.640625	-2143.48583984375
